<?xml version="1.0" encoding="UTF-8" standalone="no"?>
<!-- Created with Inkscape (http://www.inkscape.org/) -->

<svg
   xmlns:dc="http://purl.org/dc/elements/1.1/"
   xmlns:cc="http://creativecommons.org/ns#"
   xmlns:rdf="http://www.w3.org/1999/02/22-rdf-syntax-ns#"
   xmlns:svg="http://www.w3.org/2000/svg"
   xmlns="http://www.w3.org/2000/svg"
   xmlns:xlink="http://www.w3.org/1999/xlink"
   xmlns:sodipodi="http://sodipodi.sourceforge.net/DTD/sodipodi-0.dtd"
   xmlns:inkscape="http://www.inkscape.org/namespaces/inkscape"
   width="141.0714"
   height="215.00244"
   id="svg2"
   version="1.1"
   inkscape:version="0.48.3.1 r9886"
   sodipodi:docname="imvirt.svg">
  <title
     id="title3075">imvirt logo</title>
  <defs
     id="defs4">
    <pattern
       inkscape:stockid="Polka dots, medium"
       id="Polkadots-med"
       patternTransform="translate(0,0) scale(10,10)"
       height="10"
       width="10"
       patternUnits="userSpaceOnUse"
       inkscape:collect="always">
      <circle
         id="circle4908"
         r="0.15"
         cy="0.810"
         cx="2.567"
         style="fill:black;stroke:none" />
      <circle
         id="circle4910"
         r="0.15"
         cy="2.33"
         cx="3.048"
         style="fill:black;stroke:none" />
      <circle
         id="circle4912"
         r="0.15"
         cy="2.415"
         cx="4.418"
         style="fill:black;stroke:none" />
      <circle
         id="circle4914"
         r="0.15"
         cy="3.029"
         cx="1.844"
         style="fill:black;stroke:none" />
      <circle
         id="circle4916"
         r="0.15"
         cy="1.363"
         cx="6.08"
         style="fill:black;stroke:none" />
      <circle
         id="circle4918"
         r="0.15"
         cy="4.413"
         cx="5.819"
         style="fill:black;stroke:none" />
      <circle
         id="circle4920"
         r="0.15"
         cy="4.048"
         cx="4.305"
         style="fill:black;stroke:none" />
      <circle
         id="circle4922"
         r="0.15"
         cy="3.045"
         cx="5.541"
         style="fill:black;stroke:none" />
      <circle
         id="circle4924"
         r="0.15"
         cy="5.527"
         cx="4.785"
         style="fill:black;stroke:none" />
      <circle
         id="circle4926"
         r="0.15"
         cy="5.184"
         cx="2.667"
         style="fill:black;stroke:none" />
      <circle
         id="circle4928"
         r="0.15"
         cy="1.448"
         cx="7.965"
         style="fill:black;stroke:none" />
      <circle
         id="circle4930"
         r="0.15"
         cy="5.049"
         cx="7.047"
         style="fill:black;stroke:none" />
      <circle
         id="circle4932"
         r="0.15"
         cy="0.895"
         cx="4.340"
         style="fill:black;stroke:none" />
      <circle
         id="circle4934"
         r="0.15"
         cy="0.340"
         cx="7.125"
         style="fill:black;stroke:none" />
      <circle
         id="circle4936"
         r="0.15"
         cy="1.049"
         cx="9.553"
         style="fill:black;stroke:none" />
      <circle
         id="circle4938"
         r="0.15"
         cy="2.689"
         cx="7.006"
         style="fill:black;stroke:none" />
      <circle
         id="circle4940"
         r="0.15"
         cy="2.689"
         cx="8.909"
         style="fill:black;stroke:none" />
      <circle
         id="circle4942"
         r="0.15"
         cy="4.407"
         cx="9.315"
         style="fill:black;stroke:none" />
      <circle
         id="circle4944"
         r="0.15"
         cy="3.870"
         cx="7.820"
         style="fill:black;stroke:none" />
      <circle
         id="circle4946"
         r="0.15"
         cy="5.948"
         cx="8.270"
         style="fill:black;stroke:none" />
      <circle
         id="circle4948"
         r="0.15"
         cy="7.428"
         cx="7.973"
         style="fill:black;stroke:none" />
      <circle
         id="circle4950"
         r="0.15"
         cy="8.072"
         cx="9.342"
         style="fill:black;stroke:none" />
      <circle
         id="circle4952"
         r="0.15"
         cy="9.315"
         cx="8.206"
         style="fill:black;stroke:none" />
      <circle
         id="circle4954"
         r="0.15"
         cy="9.475"
         cx="9.682"
         style="fill:black;stroke:none" />
      <circle
         id="circle4956"
         r="0.15"
         cy="6.186"
         cx="9.688"
         style="fill:black;stroke:none" />
      <circle
         id="circle4958"
         r="0.15"
         cy="6.296"
         cx="3.379"
         style="fill:black;stroke:none" />
      <circle
         id="circle4960"
         r="0.15"
         cy="8.204"
         cx="2.871"
         style="fill:black;stroke:none" />
      <circle
         id="circle4962"
         r="0.15"
         cy="8.719"
         cx="4.59"
         style="fill:black;stroke:none" />
      <circle
         id="circle4964"
         r="0.15"
         cy="9.671"
         cx="3.181"
         style="fill:black;stroke:none" />
      <circle
         id="circle4966"
         r="0.15"
         cy="7.315"
         cx="5.734"
         style="fill:black;stroke:none" />
      <circle
         id="circle4968"
         r="0.15"
         cy="6.513"
         cx="6.707"
         style="fill:black;stroke:none" />
      <circle
         id="circle4970"
         r="0.15"
         cy="9.670"
         cx="5.730"
         style="fill:black;stroke:none" />
      <circle
         id="circle4972"
         r="0.15"
         cy="8.373"
         cx="6.535"
         style="fill:black;stroke:none" />
      <circle
         id="circle4974"
         r="0.15"
         cy="7.154"
         cx="4.37"
         style="fill:black;stroke:none" />
      <circle
         id="circle4976"
         r="0.15"
         cy="7.25"
         cx="0.622"
         style="fill:black;stroke:none" />
      <circle
         id="circle4978"
         r="0.15"
         cy="5.679"
         cx="0.831"
         style="fill:black;stroke:none" />
      <circle
         id="circle4980"
         r="0.15"
         cy="8.519"
         cx="1.257"
         style="fill:black;stroke:none" />
      <circle
         id="circle4982"
         r="0.15"
         cy="6.877"
         cx="1.989"
         style="fill:black;stroke:none" />
      <circle
         id="circle4984"
         r="0.15"
         cy="3.181"
         cx="0.374"
         style="fill:black;stroke:none" />
      <circle
         id="circle4986"
         r="0.15"
         cy="1.664"
         cx="1.166"
         style="fill:black;stroke:none" />
      <circle
         id="circle4988"
         r="0.15"
         cy="0.093"
         cx="1.151"
         style="fill:black;stroke:none" />
      <circle
         id="circle4990"
         r="0.15"
         cy="10.093"
         cx="1.151"
         style="fill:black;stroke:none" />
      <circle
         id="circle4992"
         r="0.15"
         cy="4.451"
         cx="1.302"
         style="fill:black;stroke:none" />
      <circle
         id="circle4994"
         r="0.15"
         cy="3.763"
         cx="3.047"
         style="fill:black;stroke:none" />
    </pattern>
  </defs>
  <sodipodi:namedview
     id="base"
     pagecolor="#ffffff"
     bordercolor="#666666"
     borderopacity="1.0"
     inkscape:pageopacity="0.0"
     inkscape:pageshadow="2"
     inkscape:zoom="2.4510649"
     inkscape:cx="3.578984"
     inkscape:cy="107.49735"
     inkscape:document-units="px"
     inkscape:current-layer="layer1"
     showgrid="false"
     showguides="true"
     inkscape:snap-global="false"
     inkscape:guide-bbox="true"
     fit-margin-top="0"
     fit-margin-left="0"
     fit-margin-right="0"
     fit-margin-bottom="0"
     inkscape:window-width="1280"
     inkscape:window-height="750"
     inkscape:window-x="-7"
     inkscape:window-y="-4"
     inkscape:window-maximized="1">
    <sodipodi:guide
       orientation="0,1"
       position="96.65978,80.171417"
       id="guide3867" />
    <sodipodi:guide
       orientation="1,0"
       position="70.69267,184.51199"
       id="guide3869" />
    <sodipodi:guide
       orientation="0,1"
       position="-121.93607,127.85648"
       id="guide3871" />
    <sodipodi:guide
       orientation="0,1"
       position="-169.62112,123.60731"
       id="guide3903" />
  </sodipodi:namedview>
  <metadata
     id="metadata7">
    <rdf:RDF>
      <cc:Work
         rdf:about="">
        <dc:format>image/svg+xml</dc:format>
        <dc:type
           rdf:resource="http://purl.org/dc/dcmitype/StillImage" />
        <dc:title>imvirt logo</dc:title>
        <cc:license
           rdf:resource="http://creativecommons.org/licenses/by/3.0/" />
        <dc:creator>
          <cc:Agent>
            <dc:title>Thomas Liske</dc:title>
          </cc:Agent>
        </dc:creator>
      </cc:Work>
      <cc:License
         rdf:about="http://creativecommons.org/licenses/by/3.0/">
        <cc:permits
           rdf:resource="http://creativecommons.org/ns#Reproduction" />
        <cc:permits
           rdf:resource="http://creativecommons.org/ns#Distribution" />
        <cc:requires
           rdf:resource="http://creativecommons.org/ns#Notice" />
        <cc:requires
           rdf:resource="http://creativecommons.org/ns#Attribution" />
        <cc:permits
           rdf:resource="http://creativecommons.org/ns#DerivativeWorks" />
      </cc:License>
    </rdf:RDF>
  </metadata>
  <g
     inkscape:label="Layer 1"
     inkscape:groupmode="layer"
     id="layer1"
     transform="translate(-195.1161,-100.74756)">
    <path
       style="fill:none;stroke:#000000;stroke-width:1px;stroke-linecap:butt;stroke-linejoin:miter;stroke-opacity:1"
       d="m 224.22336,188.55085 c -42.88425,-117.625368 128.65276,-115.174836 82.09272,0"
       id="path2989"
       inkscape:connector-curvature="0"
       sodipodi:nodetypes="cc"
       inkscape:export-filename="/home/thomas/src/imvirt/trunk/imvirt-logo.png"
       inkscape:export-xdpi="89.839996"
       inkscape:export-ydpi="89.839996" />
    <path
       style="fill:none;stroke:#000000;stroke-width:1px;stroke-linecap:butt;stroke-linejoin:miter;stroke-opacity:1"
       d="m 224.73352,187.78204 c -53.82273,16.0524 -16.52452,127.4749 -16.52452,127.4749 l 92.06521,0"
       id="path3004"
       inkscape:connector-curvature="0"
       sodipodi:nodetypes="ccc"
       inkscape:export-filename="/home/thomas/src/imvirt/trunk/imvirt-logo.png"
       inkscape:export-xdpi="89.839996"
       inkscape:export-ydpi="89.839996" />
    <path
       style="fill:none;stroke:#000000;stroke-width:1px;stroke-linecap:butt;stroke-linejoin:miter;stroke-opacity:1"
       d="m 306.02084,187.78204 c 53.82273,16.0524 16.52452,127.4749 16.52452,127.4749 l -92.0652,0"
       id="path3004-6"
       inkscape:connector-curvature="0"
       sodipodi:nodetypes="ccc"
       inkscape:export-filename="/home/thomas/src/imvirt/trunk/imvirt-logo.png"
       inkscape:export-xdpi="89.839996"
       inkscape:export-ydpi="89.839996" />
    <g
       id="g3836"
       transform="translate(-0.08703451,0)"
       inkscape:export-filename="/home/thomas/src/imvirt/trunk/imvirt-logo.png"
       inkscape:export-xdpi="89.839996"
       inkscape:export-ydpi="89.839996">
      <path
         sodipodi:nodetypes="cc"
         inkscape:connector-curvature="0"
         id="path3024"
         d="m 220.48436,132.18227 c 30.21628,-6.60981 46.26867,-30.6884 46.26867,-30.6884"
         style="fill:none;stroke:#000000;stroke-width:1px;stroke-linecap:butt;stroke-linejoin:miter;stroke-opacity:1" />
      <path
         sodipodi:nodetypes="cc"
         inkscape:connector-curvature="0"
         id="path3024-6"
         d="m 311.36924,132.41834 c -30.21628,-6.60981 -45.32441,-31.16053 -45.32441,-31.16053"
         style="fill:none;stroke:#000000;stroke-width:1px;stroke-linecap:butt;stroke-linejoin:miter;stroke-opacity:1" />
    </g>
    <g
       id="g3832"
       transform="translate(-0.3230993,0)"
       inkscape:export-filename="/home/thomas/src/imvirt/trunk/imvirt-logo.png"
       inkscape:export-xdpi="89.839996"
       inkscape:export-ydpi="89.839996">
      <path
         transform="translate(-0.23605659,1.888517)"
         sodipodi:end="6.2574703"
         sodipodi:start="0"
         d="m 246.92359,137.61176 c 0,1.69487 -1.37396,3.06884 -3.06884,3.06884 -1.69487,0 -3.06884,-1.37397 -3.06884,-3.06884 0,-1.69488 1.37397,-3.06884 3.06884,-3.06884 1.66414,0 3.02504,1.32634 3.06783,2.98993 l -3.06783,0.0789 z"
         sodipodi:ry="3.06884"
         sodipodi:rx="3.06884"
         sodipodi:cy="137.61176"
         sodipodi:cx="243.85475"
         id="path3044"
         style="fill:#000000;fill-opacity:1;stroke:#000000;stroke-width:1.41732287;stroke-linecap:butt;stroke-linejoin:round;stroke-miterlimit:4;stroke-opacity:1;stroke-dasharray:none;stroke-dashoffset:0"
         sodipodi:type="arc" />
      <path
         sodipodi:end="6.2403183"
         sodipodi:start="0"
         d="m 246.92359,137.61176 c 0,1.69487 -1.37396,3.06884 -3.06884,3.06884 -1.69487,0 -3.06884,-1.37397 -3.06884,-3.06884 0,-1.69488 1.37397,-3.06884 3.06884,-3.06884 1.64373,0 2.99558,1.29511 3.06602,2.93732 l -3.06602,0.13152 z"
         sodipodi:ry="3.06884"
         sodipodi:rx="3.06884"
         sodipodi:cy="137.61176"
         sodipodi:cx="243.85475"
         id="path3044-5"
         style="fill:#000000;fill-opacity:1;stroke:#000000;stroke-width:1.41732287;stroke-linecap:butt;stroke-linejoin:round;stroke-miterlimit:4;stroke-opacity:1;stroke-dasharray:none;stroke-dashoffset:0"
         sodipodi:type="arc"
         transform="translate(44.852283,1.888517)" />
    </g>
    <path
       sodipodi:type="arc"
       style="fill:#000000;fill-opacity:1;stroke:#000000;stroke-width:1.41732287;stroke-linecap:butt;stroke-linejoin:round;stroke-miterlimit:4;stroke-opacity:1;stroke-dasharray:none;stroke-dashoffset:0"
       id="path3842"
       sodipodi:cx="266.28088"
       sodipodi:cy="146.81828"
       sodipodi:rx="0.94425851"
       sodipodi:ry="0.94425851"
       d="m 267.22514,146.81828 c 0,0.5215 -0.42276,0.94426 -0.94426,0.94426 -0.5215,0 -0.94425,-0.42276 -0.94425,-0.94426 0,-0.5215 0.42275,-0.94426 0.94425,-0.94426 0.50577,0 0.92172,0.3985 0.94339,0.9038 l -0.94339,0.0405 z"
       sodipodi:start="0"
       sodipodi:end="6.2403183"
       transform="translate(-0.44111828,2)"
       inkscape:export-filename="/home/thomas/src/imvirt/trunk/imvirt-logo.png"
       inkscape:export-xdpi="89.839996"
       inkscape:export-ydpi="89.839996" />
    <path
       sodipodi:type="arc"
       style="fill:#000000;fill-opacity:1;fill-rule:nonzero;stroke:#000000;stroke-width:1.41732287;stroke-linecap:butt;stroke-linejoin:round;stroke-miterlimit:4;stroke-opacity:1;stroke-dasharray:none;stroke-dashoffset:0"
       id="path3855"
       sodipodi:cx="264.62845"
       sodipodi:cy="169.95262"
       sodipodi:rx="10.150779"
       sodipodi:ry="3.3049047"
       d="m 272.78807,167.98672 c 3.33476,1.46721 2.38493,3.53679 -2.1215,4.62252 -4.50644,1.08574 -10.86298,0.77649 -14.19774,-0.69072 -3.33476,-1.46721 -2.38494,-3.53678 2.1215,-4.62252 4.42674,-1.06654 10.65805,-0.78934 14.0438,0.62474 l -8.00568,2.03188 z"
       sodipodi:start="5.646115"
       sodipodi:end="11.904227"
       inkscape:export-filename="/home/thomas/src/imvirt/trunk/imvirt-logo.png"
       inkscape:export-xdpi="89.839996"
       inkscape:export-ydpi="89.839996" />
    <path
       style="fill:none;stroke:#000000;stroke-width:1px;stroke-linecap:butt;stroke-linejoin:miter;stroke-opacity:1"
       d="m 195.46151,235.10645 c 34.93756,-2.36064 69.87513,-42.4908 69.87513,-42.4908"
       id="path3865"
       inkscape:connector-curvature="0"
       sodipodi:nodetypes="cc"
       inkscape:export-filename="/home/thomas/src/imvirt/trunk/imvirt-logo.png"
       inkscape:export-xdpi="89.839996"
       inkscape:export-ydpi="89.839996" />
    <path
       style="fill:none;stroke:#000000;stroke-width:1px;stroke-linecap:butt;stroke-linejoin:miter;stroke-opacity:1"
       d="m 336.15603,234.87039 c -34.93756,-2.36064 -69.87513,-42.2408 -69.87513,-42.2408"
       id="path3865-6"
       inkscape:connector-curvature="0"
       sodipodi:nodetypes="cc"
       inkscape:export-filename="/home/thomas/src/imvirt/trunk/imvirt-logo.png"
       inkscape:export-xdpi="89.839996"
       inkscape:export-ydpi="89.839996" />
    <path
       sodipodi:type="star"
       style="fill:none;stroke:#000000;stroke-width:1.41732287;stroke-linecap:butt;stroke-linejoin:round;stroke-miterlimit:4;stroke-opacity:1;stroke-dasharray:none;stroke-dashoffset:0"
       id="path3901"
       sodipodi:sides="6"
       sodipodi:cx="226.14992"
       sodipodi:cy="235.10645"
       sodipodi:r1="51.181946"
       sodipodi:r2="35.827366"
       sodipodi:arg1="1.0493619"
       sodipodi:arg2="1.5729607"
       inkscape:flatsided="false"
       inkscape:rounded="0.5"
       inkscape:randomized="0"
       d="m 251.6449,279.48659 c -11.69071,6.71594 -12.09011,-8.52368 -25.57253,-8.55286 -13.48241,-0.0292 -13.94778,15.20857 -25.6093,8.44209 -11.66152,-6.76648 1.33668,-14.73218 -5.37926,-26.42289 -6.71594,-11.6907 -20.1449,-4.47485 -20.11572,-17.95726 0.0292,-13.48241 13.42678,-6.2085 20.19326,-17.87002 6.76648,-11.66152 -6.19711,-19.68342 5.49359,-26.39935 11.6907,-6.71594 12.09011,8.52368 25.57252,8.55286 13.48242,0.0292 13.94778,-15.20857 25.6093,-8.44209 11.66153,6.76648 -1.33667,14.73219 5.37927,26.42289 6.71593,11.6907 20.14489,4.47485 20.11571,17.95726 -0.0292,13.48242 -13.42678,6.2085 -20.19326,17.87002 -6.76648,11.66152 6.19712,19.68342 -5.49358,26.39935 z"
       transform="translate(39.689848,30.344558)"
       inkscape:export-filename="/home/thomas/src/imvirt/trunk/imvirt-logo.png"
       inkscape:export-xdpi="89.839996"
       inkscape:export-ydpi="89.839996" />
    <path
       style="fill:none;stroke:#000000;stroke-width:1px;stroke-linecap:butt;stroke-linejoin:miter;stroke-opacity:1"
       d="m 224,187.61218 c 41.75,10.5 82.25,0.25 82.25,0.25"
       id="path3905"
       inkscape:connector-curvature="0"
       sodipodi:nodetypes="cc"
       inkscape:export-filename="/home/thomas/src/imvirt/trunk/imvirt-logo.png"
       inkscape:export-xdpi="89.839996"
       inkscape:export-ydpi="89.839996" />
    <text
       xml:space="preserve"
       style="font-size:16px;font-style:normal;font-weight:normal;text-align:center;line-height:125%;letter-spacing:0px;word-spacing:0px;text-anchor:middle;fill:#000000;fill-opacity:1;stroke:none;font-family:Bitstream Vera Sans"
       x="265.87491"
       y="282.63068"
       id="text3907"
       sodipodi:linespacing="125%"
       inkscape:export-filename="/home/thomas/src/imvirt/trunk/imvirt-logo.png"
       inkscape:export-xdpi="89.839996"
       inkscape:export-ydpi="89.839996"><tspan
         sodipodi:role="line"
         id="tspan3909"
         x="265.87491"
         y="282.63068"
         style="font-size:48px;font-style:normal;font-variant:normal;font-weight:bold;font-stretch:normal;font-family:Comic Sans MS;-inkscape-font-specification:Comic Sans MS Bold">?</tspan></text>
    <path
       style="fill:#000000;fill-opacity:1;stroke:#000000;stroke-width:0.57824779;stroke-linecap:butt;stroke-linejoin:round;stroke-miterlimit:4;stroke-opacity:1;stroke-dasharray:none;stroke-dashoffset:0"
       d="m 222.40588,130.38853 c 0.0128,-0.95902 3.62316,-7.24691 5.85889,-10.20406 7.3329,-9.69903 19.11694,-16.19793 32.28098,-17.80296 2.01953,-0.24623 3.91277,-0.44821 4.20721,-0.44885 1.50797,-0.003 -8.95108,11.0005 -14.40686,15.15713 -7.00273,5.33523 -16.07509,10.16423 -23.56606,12.54365 -4.58483,1.45632 -4.38306,1.42149 -4.37416,0.75509 z"
       id="path3911"
       inkscape:connector-curvature="0"
       inkscape:export-filename="/home/thomas/src/imvirt/trunk/imvirt-logo.png"
       inkscape:export-xdpi="89.839996"
       inkscape:export-ydpi="89.839996" />
    <path
       style="fill:#000000;fill-opacity:1;fill-rule:nonzero;stroke:#000000;stroke-width:0.57824779;stroke-linecap:butt;stroke-linejoin:round;stroke-miterlimit:4;stroke-opacity:1;stroke-dasharray:none;stroke-dashoffset:0"
       d="m 306.63097,130.39512 c -9.01783,-2.61432 -19.53563,-8.42909 -26.90988,-14.87715 -3.29356,-2.87989 -10.26304,-10.38529 -11.34575,-12.21817 l -0.73597,-1.24589 1.39758,0 c 1.79539,0 7.99182,1.07824 10.88813,1.89464 12.57537,3.54468 23.74708,13.06021 29.10303,24.78857 0.60482,1.32442 1.05114,2.4533 0.99181,2.50862 -0.0593,0.0553 -1.58436,-0.32746 -3.38895,-0.85062 l 0,0 z"
       id="path3913"
       inkscape:connector-curvature="0"
       inkscape:export-filename="/home/thomas/src/imvirt/trunk/imvirt-logo.png"
       inkscape:export-xdpi="89.839996"
       inkscape:export-ydpi="89.839996" />
    <path
       style="fill:url(#Polkadots-med);fill-opacity:1;fill-rule:nonzero;stroke:#000000;stroke-width:0.57824779;stroke-linecap:butt;stroke-linejoin:round;stroke-miterlimit:4;stroke-opacity:1;stroke-dasharray:none;stroke-dashoffset:0"
       d="m 196.70392,233.36971 c 0.0169,-2.04639 1.19604,-9.75494 2.05451,-13.43127 3.63121,-15.5503 12.22592,-26.57812 23.82404,-30.56846 2.31953,-0.79803 2.38444,-0.79839 5.87486,-0.0322 8.25166,1.81147 18.3491,3.04147 29.752,3.6242 l 5.41531,0.27674 -0.64166,0.91375 c -1.17567,1.67421 -13.79279,13.25587 -18.75667,17.21734 -16.31491,13.02029 -31.78001,20.71598 -45.59242,22.68752 -1.8447,0.26331 -1.93755,0.23023 -1.92997,-0.68767 z"
       id="path3915"
       inkscape:connector-curvature="0"
       inkscape:export-filename="/home/thomas/src/imvirt/trunk/imvirt-logo.png"
       inkscape:export-xdpi="89.839996"
       inkscape:export-ydpi="89.839996" />
    <path
       style="fill:url(#Polkadots-med);fill-opacity:1;fill-rule:nonzero;stroke:#000000;stroke-width:0.25769508;stroke-linecap:butt;stroke-linejoin:round;stroke-miterlimit:4;stroke-opacity:1;stroke-dasharray:none;stroke-dashoffset:0"
       d="m 333.46332,234.0176 c -17.43433,-2.28448 -37.03696,-13.35325 -57.4908,-32.4626 -1.91994,-1.79374 -4.63774,-4.47003 -6.03957,-5.94732 l -2.54877,-2.68598 3.76684,-0.12702 c 10.74916,-0.36245 21.68617,-1.59099 31.22139,-3.50704 1.8,-0.3617 3.39545,-0.65425 3.54545,-0.65011 1.80848,0.05 6.31209,2.05215 9.58962,4.2633 8.58177,5.78961 14.3183,15.50591 17.05028,28.87909 0.59029,2.8895 1.29874,7.76531 1.45299,10 0.0656,0.95 0.15883,1.87045 0.20724,2.04545 0.0484,0.175 0.0211,0.30593 -0.0606,0.29094 -0.0817,-0.015 -0.39407,-0.0594 -0.69407,-0.0987 l 0,0 z"
       id="path5827"
       inkscape:connector-curvature="0"
       inkscape:export-filename="/home/thomas/src/imvirt/trunk/imvirt-logo.png"
       inkscape:export-xdpi="89.839996"
       inkscape:export-ydpi="89.839996" />
  </g>
</svg>
